<?xml version="1.0" encoding="UTF-8" standalone="no"?>
<!DOCTYPE svg PUBLIC "-//W3C//DTD SVG 1.1//EN"
 "http://www.w3.org/Graphics/SVG/1.1/DTD/svg11.dtd">
<!-- Generated by graphviz version 2.40.1 (20161225.0304)
 -->
<!-- Title: %3 Pages: 1 -->
<svg width="1162pt" height="622pt"
 viewBox="0.00 0.00 1161.67 622.00" xmlns="http://www.w3.org/2000/svg" xmlns:xlink="http://www.w3.org/1999/xlink">
<g id="graph0" class="graph" transform="scale(1 1) rotate(0) translate(4 618)">
<title>%3</title>
<polygon fill="#ffffff" stroke="transparent" points="-4,4 -4,-618 1157.6692,-618 1157.6692,4 -4,4"/>
<!-- CLUBE -->
<g id="node1" class="node">
<title>CLUBE</title>
<polygon fill="#ffffff" stroke="#000000" points="864.4448,-425 810.4448,-425 810.4448,-389 864.4448,-389 864.4448,-425"/>
<text text-anchor="middle" x="837.4448" y="-404.5" font-family="Courier,monospace" font-size="10.00" fill="#000000">CLUBE</text>
</g>
<!-- LUGAR_EM -->
<g id="node34" class="node">
<title>LUGAR_EM</title>
<polygon fill="#ffffff" stroke="#000000" points="961.557,-483 907.3324,-465 961.557,-447 1015.7816,-465 961.557,-483"/>
<text text-anchor="middle" x="961.557" y="-462.5" font-family="Courier,monospace" font-size="10.00" fill="#000000">LUGAR_EM</text>
</g>
<!-- CLUBE&#45;&#45;LUGAR_EM -->
<g id="edge30" class="edge">
<title>CLUBE&#45;&#45;LUGAR_EM</title>
<path fill="none" stroke="#000000" d="M865.5285,-417.9164C887.7917,-428.3204 918.895,-442.8556 939.7975,-452.6237"/>
<path fill="none" stroke="transparent" d="M864.6817,-419.7283C886.9449,-430.1324 918.0483,-444.6676 938.9507,-454.4357"/>
<path fill="none" stroke="#000000" d="M863.835,-421.5403C886.0982,-431.9443 917.2016,-446.4795 938.104,-456.2476"/>
<text text-anchor="middle" x="885.9448" y="-433" font-family="Courier,monospace" font-size="10.00" fill="#000000">N</text>
</g>
<!-- TEM -->
<g id="node37" class="node">
<title>TEM</title>
<polygon fill="#ffffff" stroke="#000000" points="961.557,-367 932.2817,-349 961.557,-331 990.8323,-349 961.557,-367"/>
<text text-anchor="middle" x="961.557" y="-346.5" font-family="Courier,monospace" font-size="10.00" fill="#000000">TEM</text>
</g>
<!-- CLUBE&#45;&#45;TEM -->
<g id="edge36" class="edge">
<title>CLUBE&#45;&#45;TEM</title>
<path fill="none" stroke="#000000" d="M863.835,-392.4597C888.2389,-381.0553 923.2647,-364.6871 943.8337,-355.0748"/>
<path fill="none" stroke="transparent" d="M864.6817,-394.2717C889.0856,-382.8673 924.1114,-366.499 944.6804,-356.8868"/>
<path fill="none" stroke="#000000" d="M865.5285,-396.0836C889.9324,-384.6792 924.9582,-368.3109 945.5271,-358.6987"/>
<text text-anchor="middle" x="885.9448" y="-387" font-family="Courier,monospace" font-size="10.00" fill="#000000">1</text>
</g>
<!-- CLUBE_Nome -->
<g id="node2" class="node">
<title>CLUBE_Nome</title>
<ellipse fill="#ffffff" stroke="#000000" cx="698.3477" cy="-596" rx="27" ry="18"/>
<text text-anchor="start" x="685.8477" y="-594.5" font-family="Courier,monospace" text-decoration="underline" font-size="10.00" fill="#000000">Nome</text>
</g>
<!-- CLUBE_Nome&#45;&#45;CLUBE -->
<g id="edge1" class="edge">
<title>CLUBE_Nome&#45;&#45;CLUBE</title>
<path fill="none" stroke="#000000" d="M724.3362,-590.9952C738.5788,-587.0934 755.6762,-580.3597 767.4448,-569 809.5491,-528.3587 827.7918,-458.1836 834.3413,-425.1679"/>
</g>
<!-- CLUBE_DataFund -->
<g id="node3" class="node">
<title>CLUBE_DataFund</title>
<ellipse fill="#ffffff" stroke="#000000" cx="698.3477" cy="-542" rx="38.0276" ry="18"/>
<text text-anchor="middle" x="698.3477" y="-539.5" font-family="Courier,monospace" font-size="10.00" fill="#000000">DataFund</text>
</g>
<!-- CLUBE_DataFund&#45;&#45;CLUBE -->
<g id="edge2" class="edge">
<title>CLUBE_DataFund&#45;&#45;CLUBE</title>
<path fill="none" stroke="#000000" d="M732.2254,-533.4566C744.2267,-529.2751 757.264,-523.3024 767.4448,-515 797.7479,-490.288 819.332,-448.8935 829.957,-425.1725"/>
</g>
<!-- CLUBE_Estadio -->
<g id="node4" class="node">
<title>CLUBE_Estadio</title>
<ellipse fill="#ffffff" stroke="#000000" cx="698.3477" cy="-488" rx="41.5911" ry="18"/>
<text text-anchor="middle" x="698.3477" y="-485.5" font-family="Courier,monospace" font-size="10.00" fill="#000000">Estadio ?</text>
</g>
<!-- CLUBE_Estadio&#45;&#45;CLUBE -->
<g id="edge3" class="edge">
<title>CLUBE_Estadio&#45;&#45;CLUBE</title>
<path fill="none" stroke="#000000" d="M731.9141,-477.0741C743.4988,-472.738 756.3468,-467.2778 767.4448,-461 785.3464,-450.8737 803.6863,-436.553 817.1009,-425.2035"/>
</g>
<!-- CLUBE_AnosExist -->
<g id="node5" class="node">
<title>CLUBE_AnosExist</title>
<ellipse fill="none" stroke="#000000" stroke-dasharray="5,2" cx="698.3477" cy="-434" rx="41.5911" ry="18"/>
<text text-anchor="middle" x="698.3477" y="-431.5" font-family="Courier,monospace" font-size="10.00" fill="#000000">AnosExist</text>
</g>
<!-- CLUBE_AnosExist&#45;&#45;CLUBE -->
<g id="edge4" class="edge">
<title>CLUBE_AnosExist&#45;&#45;CLUBE</title>
<path fill="none" stroke="#000000" d="M736.7248,-426.5507C760.0448,-422.024 789.2602,-416.3531 810.2112,-412.2863"/>
</g>
<!-- CLUBE_Classificacao -->
<g id="node6" class="node">
<title>CLUBE_Classificacao</title>
<ellipse fill="#ffffff" stroke="#000000" cx="698.3477" cy="-380" rx="55.8461" ry="18"/>
<text text-anchor="start" x="658.8477" y="-378.5" font-family="Courier,monospace" text-decoration="underline" font-size="10.00" fill="#000000">Classificacao</text>
</g>
<!-- CLUBE_Classificacao&#45;&#45;CLUBE -->
<g id="edge5" class="edge">
<title>CLUBE_Classificacao&#45;&#45;CLUBE</title>
<path fill="none" stroke="#000000" d="M746.6067,-389.3675C767.9495,-393.5103 792.2525,-398.2278 810.347,-401.7401"/>
</g>
<!-- JOGADORES -->
<g id="node7" class="node">
<title>JOGADORES</title>
<polygon fill="#ffffff" stroke="#000000" points="208.4811,-359 137.4811,-359 137.4811,-323 208.4811,-323 208.4811,-359"/>
<text text-anchor="middle" x="172.9811" y="-338.5" font-family="Courier,monospace" font-size="10.00" fill="#000000">JOGADORES</text>
</g>
<!-- JOGAM_EM -->
<g id="node32" class="node">
<title>JOGAM_EM</title>
<polygon fill="#ffffff" stroke="#000000" points="431.1384,-298 376.9138,-280 431.1384,-262 485.363,-280 431.1384,-298"/>
<text text-anchor="middle" x="431.1384" y="-277.5" font-family="Courier,monospace" font-size="10.00" fill="#000000">JOGAM_EM</text>
</g>
<!-- JOGADORES&#45;&#45;JOGAM_EM -->
<g id="edge26" class="edge">
<title>JOGADORES&#45;&#45;JOGAM_EM</title>
<path fill="none" stroke="#000000" d="M200.5927,-321.1604C215.7785,-312.4325 234.9394,-302.747 253.6685,-297.0847 294.7269,-284.7826 342.7398,-280.2088 378.5739,-278.5872"/>
<path fill="none" stroke="transparent" d="M201.5896,-322.8942C216.6807,-314.2175 235.8416,-304.532 254.2442,-299 294.9165,-286.7736 342.9295,-282.1998 378.6642,-280.5852"/>
<path fill="none" stroke="#000000" d="M202.5865,-324.6281C217.583,-316.0024 236.7439,-306.3169 254.82,-300.9153 295.1062,-288.7646 343.1191,-284.1908 378.7545,-282.5831"/>
<text text-anchor="middle" x="232.7442" y="-310" font-family="Courier,monospace" font-size="10.00" fill="#000000">N</text>
</g>
<!-- MARCAM -->
<g id="node33" class="node">
<title>MARCAM</title>
<polygon fill="#ffffff" stroke="#000000" points="306.6352,-506 262.3904,-488 306.6352,-470 350.8801,-488 306.6352,-506"/>
<text text-anchor="middle" x="306.6352" y="-485.5" font-family="Courier,monospace" font-size="10.00" fill="#000000">MARCAM</text>
</g>
<!-- JOGADORES&#45;&#45;MARCAM -->
<g id="edge28" class="edge">
<title>JOGADORES&#45;&#45;MARCAM</title>
<path fill="none" stroke="#000000" d="M181.6857,-359.354C194.5417,-384.8725 220.7425,-431.2772 254.2442,-461 262.817,-468.6058 273.9166,-474.7245 283.6911,-479.2015"/>
<text text-anchor="middle" x="232.7442" y="-444" font-family="Courier,monospace" font-size="10.00" fill="#000000">M</text>
</g>
<!-- JOGADORES_JogadoresId -->
<g id="node8" class="node">
<title>JOGADORES_JogadoresId</title>
<ellipse fill="#ffffff" stroke="#000000" cx="48.859" cy="-476" rx="48.7185" ry="18"/>
<text text-anchor="start" x="15.359" y="-474.5" font-family="Courier,monospace" text-decoration="underline" font-size="10.00" fill="#000000">JogadoresId</text>
</g>
<!-- JOGADORES_JogadoresId&#45;&#45;JOGADORES -->
<g id="edge6" class="edge">
<title>JOGADORES_JogadoresId&#45;&#45;JOGADORES</title>
<path fill="none" stroke="#000000" d="M79.4971,-461.8921C85.8894,-458.1985 92.3187,-453.8662 97.718,-449 127.0874,-422.5308 151.1334,-382.5149 163.6385,-359.3495"/>
</g>
<!-- JOGADORES_Nome -->
<g id="node9" class="node">
<title>JOGADORES_Nome</title>
<ellipse fill="#ffffff" stroke="#000000" cx="48.859" cy="-422" rx="27" ry="18"/>
<text text-anchor="middle" x="48.859" y="-419.5" font-family="Courier,monospace" font-size="10.00" fill="#000000">Nome</text>
</g>
<!-- JOGADORES_Nome&#45;&#45;JOGADORES -->
<g id="edge7" class="edge">
<title>JOGADORES_Nome&#45;&#45;JOGADORES</title>
<path fill="none" stroke="#000000" d="M70.5804,-410.7065C79.1646,-406.0606 89.0339,-400.4882 97.718,-395 115.5269,-383.7452 134.8176,-369.8687 149.4102,-359.0009"/>
</g>
<!-- JOGADORES_Clube -->
<g id="node10" class="node">
<title>JOGADORES_Clube</title>
<ellipse fill="#ffffff" stroke="#000000" cx="48.859" cy="-368" rx="27.8353" ry="18"/>
<text text-anchor="middle" x="48.859" y="-365.5" font-family="Courier,monospace" font-size="10.00" fill="#000000">Clube</text>
</g>
<!-- JOGADORES_Clube&#45;&#45;JOGADORES -->
<g id="edge8" class="edge">
<title>JOGADORES_Clube&#45;&#45;JOGADORES</title>
<path fill="none" stroke="#000000" d="M75.1821,-362.274C93.2573,-358.3422 117.4677,-353.0757 137.2776,-348.7665"/>
</g>
<!-- JOGADORES_Numero -->
<g id="node11" class="node">
<title>JOGADORES_Numero</title>
<ellipse fill="#ffffff" stroke="#000000" cx="48.859" cy="-314" rx="31.3996" ry="18"/>
<text text-anchor="middle" x="48.859" y="-311.5" font-family="Courier,monospace" font-size="10.00" fill="#000000">Numero</text>
</g>
<!-- JOGADORES_Numero&#45;&#45;JOGADORES -->
<g id="edge9" class="edge">
<title>JOGADORES_Numero&#45;&#45;JOGADORES</title>
<path fill="none" stroke="#000000" d="M78.2742,-320.3986C95.9096,-324.2348 118.4616,-329.1405 137.1345,-333.2024"/>
</g>
<!-- JOGADORES_Posicao -->
<g id="node12" class="node">
<title>JOGADORES_Posicao</title>
<ellipse fill="#ffffff" stroke="#000000" cx="48.859" cy="-260" rx="34.9638" ry="18"/>
<text text-anchor="middle" x="48.859" y="-257.5" font-family="Courier,monospace" font-size="10.00" fill="#000000">Posicao</text>
</g>
<!-- JOGADORES_Posicao&#45;&#45;JOGADORES -->
<g id="edge10" class="edge">
<title>JOGADORES_Posicao&#45;&#45;JOGADORES</title>
<path fill="none" stroke="#000000" d="M73.5416,-272.9055C81.384,-277.2 90.017,-282.1331 97.718,-287 115.5269,-298.2548 134.8176,-312.1313 149.4102,-322.9991"/>
</g>
<!-- JOGADORES_País -->
<g id="node13" class="node">
<title>JOGADORES_País</title>
<ellipse fill="#ffffff" stroke="#000000" cx="48.859" cy="-206" rx="27" ry="18"/>
<text text-anchor="middle" x="48.859" y="-203.5" font-family="Courier,monospace" font-size="10.00" fill="#000000">País</text>
</g>
<!-- JOGADORES_País&#45;&#45;JOGADORES -->
<g id="edge11" class="edge">
<title>JOGADORES_País&#45;&#45;JOGADORES</title>
<path fill="none" stroke="#000000" d="M71.665,-215.8626C80.3986,-220.3113 90.087,-226.1225 97.718,-233 127.0874,-259.4692 151.1334,-299.4851 163.6385,-322.6505"/>
</g>
<!-- MARCADORES -->
<g id="node14" class="node">
<title>MARCADORES</title>
<polygon fill="#ffffff" stroke="#000000" points="583.2506,-398 506.2506,-398 506.2506,-362 583.2506,-362 583.2506,-398"/>
<text text-anchor="middle" x="544.7506" y="-377.5" font-family="Courier,monospace" font-size="10.00" fill="#000000">MARCADORES</text>
</g>
<!-- REPRESENTAM -->
<g id="node36" class="node">
<title>REPRESENTAM</title>
<polygon fill="#ffffff" stroke="#000000" points="698.3477,-344 629.1534,-326 698.3477,-308 767.542,-326 698.3477,-344"/>
<text text-anchor="middle" x="698.3477" y="-323.5" font-family="Courier,monospace" font-size="10.00" fill="#000000">REPRESENTAM</text>
</g>
<!-- MARCADORES&#45;&#45;REPRESENTAM -->
<g id="edge34" class="edge">
<title>MARCADORES&#45;&#45;REPRESENTAM</title>
<path fill="none" stroke="#000000" d="M583.5096,-366.3735C609.9931,-357.0627 644.5508,-344.9133 668.8122,-336.3838"/>
<text text-anchor="middle" x="607.7506" y="-360" font-family="Courier,monospace" font-size="10.00" fill="#000000">N</text>
</g>
<!-- MARCADORES_JogadoresId -->
<g id="node15" class="node">
<title>MARCADORES_JogadoresId</title>
<ellipse fill="#ffffff" stroke="#000000" cx="306.6352" cy="-434" rx="48.7185" ry="18"/>
<text text-anchor="start" x="273.1352" y="-432.5" font-family="Courier,monospace" text-decoration="underline" font-size="10.00" fill="#000000">JogadoresId</text>
</g>
<!-- MARCADORES_JogadoresId&#45;&#45;MARCADORES -->
<g id="edge12" class="edge">
<title>MARCADORES_JogadoresId&#45;&#45;MARCADORES</title>
<path fill="none" stroke="#000000" d="M348.8884,-424.6722C385.0995,-416.6461 438.6381,-404.7028 485.2506,-394 491.9734,-392.4564 499.1182,-390.794 506.0372,-389.1728"/>
</g>
<!-- MARCADORES_Clube -->
<g id="node16" class="node">
<title>MARCADORES_Clube</title>
<ellipse fill="#ffffff" stroke="#000000" cx="306.6352" cy="-380" rx="27.8353" ry="18"/>
<text text-anchor="middle" x="306.6352" y="-377.5" font-family="Courier,monospace" font-size="10.00" fill="#000000">Clube</text>
</g>
<!-- MARCADORES_Clube&#45;&#45;MARCADORES -->
<g id="edge13" class="edge">
<title>MARCADORES_Clube&#45;&#45;MARCADORES</title>
<path fill="none" stroke="#000000" d="M334.4161,-380C376.8634,-380 457.9962,-380 506.1437,-380"/>
</g>
<!-- MARCADORES_Golos -->
<g id="node17" class="node">
<title>MARCADORES_Golos</title>
<ellipse fill="#ffffff" stroke="#000000" cx="306.6352" cy="-326" rx="27.8353" ry="18"/>
<text text-anchor="middle" x="306.6352" y="-323.5" font-family="Courier,monospace" font-size="10.00" fill="#000000">Golos</text>
</g>
<!-- MARCADORES_Golos&#45;&#45;MARCADORES -->
<g id="edge14" class="edge">
<title>MARCADORES_Golos&#45;&#45;MARCADORES</title>
<path fill="none" stroke="#000000" d="M333.0275,-331.9853C375.0445,-341.5139 457.3583,-360.1811 506.0484,-371.2231"/>
</g>
<!-- JOGOS_CLUBE -->
<g id="node18" class="node">
<title>JOGOS_CLUBE</title>
<polygon fill="#ffffff" stroke="#000000" points="586.2506,-198 503.2506,-198 503.2506,-162 586.2506,-162 586.2506,-198"/>
<text text-anchor="middle" x="544.7506" y="-177.5" font-family="Courier,monospace" font-size="10.00" fill="#000000">JOGOS_CLUBE</text>
</g>
<!-- FEITOS_POR -->
<g id="node35" class="node">
<title>FEITOS_POR</title>
<polygon fill="#ffffff" stroke="#000000" points="698.3477,-239 634.1433,-221 698.3477,-203 762.5521,-221 698.3477,-239"/>
<text text-anchor="middle" x="698.3477" y="-218.5" font-family="Courier,monospace" font-size="10.00" fill="#000000">FEITOS_POR</text>
</g>
<!-- JOGOS_CLUBE&#45;&#45;FEITOS_POR -->
<g id="edge32" class="edge">
<title>JOGOS_CLUBE&#45;&#45;FEITOS_POR</title>
<path fill="none" stroke="#000000" d="M586.832,-189.1628C611.5308,-195.7558 642.4368,-204.0056 665.5278,-210.1693"/>
<path fill="none" stroke="transparent" d="M586.3162,-191.0952C611.015,-197.6881 641.921,-205.9379 665.012,-212.1016"/>
<path fill="none" stroke="#000000" d="M585.8004,-193.0275C610.4992,-199.6204 641.4052,-207.8702 664.4962,-214.034"/>
<text text-anchor="middle" x="607.7506" y="-199" font-family="Courier,monospace" font-size="10.00" fill="#000000">N</text>
</g>
<!-- JOGOS_CLUBE_JogosClubeId -->
<g id="node19" class="node">
<title>JOGOS_CLUBE_JogosClubeId</title>
<ellipse fill="#ffffff" stroke="#000000" cx="306.6352" cy="-180" rx="52.2822" ry="18"/>
<text text-anchor="start" x="270.1352" y="-178.5" font-family="Courier,monospace" text-decoration="underline" font-size="10.00" fill="#000000">JogosClubeId</text>
</g>
<!-- JOGOS_CLUBE_JogosClubeId&#45;&#45;JOGOS_CLUBE -->
<g id="edge15" class="edge">
<title>JOGOS_CLUBE_JogosClubeId&#45;&#45;JOGOS_CLUBE</title>
<path fill="none" stroke="#000000" d="M359.1854,-180C402.4641,-180 463.0062,-180 503.0165,-180"/>
</g>
<!-- JOGOS_CLUBE_NumJogos -->
<g id="node20" class="node">
<title>JOGOS_CLUBE_NumJogos</title>
<ellipse fill="#ffffff" stroke="#000000" cx="306.6352" cy="-126" rx="38.0276" ry="18"/>
<text text-anchor="middle" x="306.6352" y="-123.5" font-family="Courier,monospace" font-size="10.00" fill="#000000">NumJogos</text>
</g>
<!-- JOGOS_CLUBE_NumJogos&#45;&#45;JOGOS_CLUBE -->
<g id="edge16" class="edge">
<title>JOGOS_CLUBE_NumJogos&#45;&#45;JOGOS_CLUBE</title>
<path fill="none" stroke="#000000" d="M341.2593,-133.8521C384.0825,-143.5636 456.9316,-160.0843 502.8608,-170.5002"/>
</g>
<!-- JOGOS_CLUBE_Resultados -->
<g id="node21" class="node">
<title>JOGOS_CLUBE_Resultados</title>
<ellipse fill="#ffffff" stroke="#000000" cx="306.6352" cy="-72" rx="45.1548" ry="18"/>
<text text-anchor="middle" x="306.6352" y="-69.5" font-family="Courier,monospace" font-size="10.00" fill="#000000">Resultados</text>
</g>
<!-- JOGOS_CLUBE_Resultados&#45;&#45;JOGOS_CLUBE -->
<g id="edge17" class="edge">
<title>JOGOS_CLUBE_Resultados&#45;&#45;JOGOS_CLUBE</title>
<path fill="none" stroke="#000000" d="M342.573,-82.9942C379.3962,-94.8724 437.8126,-115.4347 485.2506,-140 497.409,-146.2961 510.1043,-154.5667 520.6303,-161.9526"/>
</g>
<!-- JOGOS_CLUBE_Resultados_Vitorias -->
<g id="node22" class="node">
<title>JOGOS_CLUBE_Resultados_Vitorias</title>
<ellipse fill="#ffffff" stroke="#000000" cx="172.9811" cy="-18" rx="38.0276" ry="18"/>
<text text-anchor="middle" x="172.9811" y="-15.5" font-family="Courier,monospace" font-size="10.00" fill="#000000">Vitorias</text>
</g>
<!-- JOGOS_CLUBE_Resultados_Vitorias&#45;&#45;JOGOS_CLUBE_Resultados -->
<g id="edge18" class="edge">
<title>JOGOS_CLUBE_Resultados_Vitorias&#45;&#45;JOGOS_CLUBE_Resultados</title>
<path fill="none" stroke="#000000" d="M202.3121,-29.8505C223.6743,-38.4814 252.5945,-50.166 274.5673,-59.0437"/>
</g>
<!-- JOGOS_CLUBE_Resultados_Empates -->
<g id="node23" class="node">
<title>JOGOS_CLUBE_Resultados_Empates</title>
<ellipse fill="#ffffff" stroke="#000000" cx="172.9811" cy="-126" rx="34.9638" ry="18"/>
<text text-anchor="middle" x="172.9811" y="-123.5" font-family="Courier,monospace" font-size="10.00" fill="#000000">Empates</text>
</g>
<!-- JOGOS_CLUBE_Resultados_Empates&#45;&#45;JOGOS_CLUBE_Resultados -->
<g id="edge19" class="edge">
<title>JOGOS_CLUBE_Resultados_Empates&#45;&#45;JOGOS_CLUBE_Resultados</title>
<path fill="none" stroke="#000000" d="M200.6744,-114.8112C222.2364,-106.0995 252.1908,-93.9971 274.7518,-84.8818"/>
</g>
<!-- JOGOS_CLUBE_Resultados_Derrotas -->
<g id="node24" class="node">
<title>JOGOS_CLUBE_Resultados_Derrotas</title>
<ellipse fill="#ffffff" stroke="#000000" cx="172.9811" cy="-72" rx="38.0276" ry="18"/>
<text text-anchor="middle" x="172.9811" y="-69.5" font-family="Courier,monospace" font-size="10.00" fill="#000000">Derrotas</text>
</g>
<!-- JOGOS_CLUBE_Resultados_Derrotas&#45;&#45;JOGOS_CLUBE_Resultados -->
<g id="edge20" class="edge">
<title>JOGOS_CLUBE_Resultados_Derrotas&#45;&#45;JOGOS_CLUBE_Resultados</title>
<path fill="none" stroke="#000000" d="M211.281,-72C226.8629,-72 244.992,-72 261.2331,-72"/>
</g>
<!-- JOGOS_CLUBE_Pontos -->
<g id="node25" class="node">
<title>JOGOS_CLUBE_Pontos</title>
<ellipse fill="#ffffff" stroke="#000000" cx="306.6352" cy="-234" rx="31.3996" ry="18"/>
<text text-anchor="middle" x="306.6352" y="-231.5" font-family="Courier,monospace" font-size="10.00" fill="#000000">Pontos</text>
</g>
<!-- JOGOS_CLUBE_Pontos&#45;&#45;JOGOS_CLUBE -->
<g id="edge21" class="edge">
<title>JOGOS_CLUBE_Pontos&#45;&#45;JOGOS_CLUBE</title>
<path fill="none" stroke="#000000" d="M336.0511,-227.5144C371.4711,-219.6814 432.7535,-206.054 485.2506,-194 491.0426,-192.6701 497.1477,-191.2521 503.1519,-189.8482"/>
</g>
<!-- CLASSIFICACAO -->
<g id="node26" class="node">
<title>CLASSIFICACAO</title>
<polygon fill="#ffffff" stroke="#000000" points="1153.6692,-537 1058.6692,-537 1058.6692,-501 1153.6692,-501 1153.6692,-537"/>
<text text-anchor="middle" x="1106.1692" y="-516.5" font-family="Courier,monospace" font-size="10.00" fill="#000000">CLASSIFICACAO</text>
</g>
<!-- CLASSIFICACAO_Lugar -->
<g id="node27" class="node">
<title>CLASSIFICACAO_Lugar</title>
<ellipse fill="#ffffff" stroke="#000000" cx="961.557" cy="-573" rx="27.8353" ry="18"/>
<text text-anchor="start" x="946.057" y="-571.5" font-family="Courier,monospace" text-decoration="underline" font-size="10.00" fill="#000000">Lugar</text>
</g>
<!-- CLASSIFICACAO_Lugar&#45;&#45;CLASSIFICACAO -->
<g id="edge22" class="edge">
<title>CLASSIFICACAO_Lugar&#45;&#45;CLASSIFICACAO</title>
<path fill="none" stroke="#000000" d="M985.7618,-563.9616C1005.5415,-556.5756 1034.1102,-545.9077 1058.4561,-536.8166"/>
</g>
<!-- CLASSIFICACAO_Clube -->
<g id="node28" class="node">
<title>CLASSIFICACAO_Clube</title>
<ellipse fill="#ffffff" stroke="#000000" cx="961.557" cy="-519" rx="27.8353" ry="18"/>
<text text-anchor="start" x="946.057" y="-517.5" font-family="Courier,monospace" text-decoration="underline" font-size="10.00" fill="#000000">Clube</text>
</g>
<!-- CLASSIFICACAO_Clube&#45;&#45;CLASSIFICACAO -->
<g id="edge23" class="edge">
<title>CLASSIFICACAO_Clube&#45;&#45;CLASSIFICACAO</title>
<path fill="none" stroke="#000000" d="M989.4397,-519C1008.9736,-519 1035.57,-519 1058.442,-519"/>
</g>
<!-- CLAQUE -->
<g id="node29" class="node">
<title>CLAQUE</title>
<polygon fill="#ffffff" stroke="#000000" points="1133.1692,-367 1079.1692,-367 1079.1692,-331 1133.1692,-331 1133.1692,-367"/>
<text text-anchor="middle" x="1106.1692" y="-346.5" font-family="Courier,monospace" font-size="10.00" fill="#000000">CLAQUE</text>
</g>
<!-- CLAQUE_Clube -->
<g id="node30" class="node">
<title>CLAQUE_Clube</title>
<ellipse fill="#ffffff" stroke="#000000" cx="961.557" cy="-295" rx="27.8353" ry="18"/>
<text text-anchor="start" x="946.057" y="-293.5" font-family="Courier,monospace" text-decoration="underline" font-size="10.00" fill="#000000">Clube</text>
</g>
<!-- CLAQUE_Clube&#45;&#45;CLAQUE -->
<g id="edge24" class="edge">
<title>CLAQUE_Clube&#45;&#45;CLAQUE</title>
<path fill="none" stroke="#000000" d="M985.7618,-304.0384C1011.4915,-313.6462 1052.0932,-328.8074 1078.9262,-338.8272"/>
</g>
<!-- CLAQUE_Claque -->
<g id="node31" class="node">
<title>CLAQUE_Claque</title>
<ellipse fill="#ffffff" stroke="#000000" cx="961.557" cy="-407" rx="31.3766" ry="18"/>
<ellipse fill="none" stroke="#000000" cx="961.557" cy="-407" rx="35.3994" ry="22"/>
<text text-anchor="middle" x="961.557" y="-404.5" font-family="Courier,monospace" font-size="10.00" fill="#000000">Claque</text>
</g>
<!-- CLAQUE_Claque&#45;&#45;CLAQUE -->
<g id="edge25" class="edge">
<title>CLAQUE_Claque&#45;&#45;CLAQUE</title>
<path fill="none" stroke="#000000" d="M991.5207,-394.9824C1017.167,-384.6963 1053.7865,-370.0092 1078.6896,-360.0213"/>
</g>
<!-- JOGAM_EM&#45;&#45;CLUBE -->
<g id="edge27" class="edge">
<title>JOGAM_EM&#45;&#45;CLUBE</title>
<path fill="none" stroke="#000000" d="M463.609,-270.7203C527.2689,-258.416 669.3333,-240.1942 768.4491,-297.2704 803.6565,-318.1365 824.0633,-362.5487 833.3662,-387.905"/>
<path fill="none" stroke="transparent" d="M463.9887,-272.6839C527.5233,-260.3997 669.5877,-242.178 767.4448,-299 801.8391,-318.9715 822.246,-363.3838 831.4885,-388.5934"/>
<path fill="none" stroke="#000000" d="M464.3683,-274.6476C527.7778,-262.3835 669.8422,-244.1617 766.4405,-300.7296 800.0218,-319.8066 820.4287,-364.2188 829.6107,-389.2819"/>
<text text-anchor="middle" x="607.7506" y="-263" font-family="Courier,monospace" font-size="10.00" fill="#000000">1</text>
</g>
<!-- MARCAM&#45;&#45;MARCADORES -->
<g id="edge29" class="edge">
<title>MARCAM&#45;&#45;MARCADORES</title>
<path fill="none" stroke="#000000" d="M331.2978,-478.216C366.5355,-466.8134 432.1057,-444.0662 484.3369,-417.2209 495.9367,-411.273 508.26,-403.4693 518.5687,-396.4658"/>
<path fill="none" stroke="transparent" d="M331.9135,-480.1189C367.191,-468.703 432.7612,-445.9557 485.2506,-419 497.0067,-412.9627 509.33,-405.159 519.6925,-398.1202"/>
<path fill="none" stroke="#000000" d="M332.5293,-482.0217C367.8465,-470.5925 433.4167,-447.8452 486.1643,-420.7791 498.0767,-414.6524 510.4,-406.8487 520.8163,-399.7746"/>
<text text-anchor="middle" x="431.1384" y="-466" font-family="Courier,monospace" font-size="10.00" fill="#000000">N</text>
</g>
<!-- LUGAR_EM&#45;&#45;CLASSIFICACAO -->
<g id="edge31" class="edge">
<title>LUGAR_EM&#45;&#45;CLASSIFICACAO</title>
<path fill="none" stroke="#000000" d="M987.7775,-472.6562C1007.481,-480.0137 1035.3074,-490.4044 1059.108,-499.2919"/>
<path fill="none" stroke="transparent" d="M987.0778,-474.5298C1006.7814,-481.8874 1034.6078,-492.2781 1058.4083,-501.1655"/>
<path fill="none" stroke="#000000" d="M986.3782,-476.4034C1006.0818,-483.761 1033.9081,-494.1517 1057.7087,-503.0391"/>
<text text-anchor="middle" x="1037.1692" y="-496" font-family="Courier,monospace" font-size="10.00" fill="#000000">1</text>
</g>
<!-- FEITOS_POR&#45;&#45;CLUBE -->
<g id="edge33" class="edge">
<title>FEITOS_POR&#45;&#45;CLUBE</title>
<path fill="none" stroke="#000000" d="M740.5736,-225.4181C759.119,-230.277 779.4993,-238.6143 793.9,-253.628 812.8559,-274.1618 829.368,-352.485 836.1502,-388.4537"/>
<path fill="none" stroke="transparent" d="M740.0685,-227.3533C758.3618,-232.1281 778.742,-240.4654 792.4448,-255 810.8989,-274.5744 827.411,-352.8975 834.1849,-388.8242"/>
<path fill="none" stroke="#000000" d="M739.5634,-229.2884C757.6045,-233.9792 777.9847,-242.3165 790.9895,-256.372 808.9419,-274.9869 825.454,-353.3101 832.2195,-389.1948"/>
<text text-anchor="middle" x="788.9448" y="-258" font-family="Courier,monospace" font-size="10.00" fill="#000000">1</text>
</g>
<!-- REPRESENTAM&#45;&#45;CLUBE -->
<g id="edge35" class="edge">
<title>REPRESENTAM&#45;&#45;CLUBE</title>
<path fill="none" stroke="#000000" d="M730.1651,-334.1453C742.4421,-338.6477 756.331,-344.4321 768.4295,-351.2592 786.5772,-361.55 804.9172,-375.8706 818.3927,-387.2696"/>
<path fill="none" stroke="transparent" d="M729.4768,-336.0231C741.6732,-340.494 755.5621,-346.2783 767.4448,-353 785.3464,-363.1263 803.6863,-377.447 817.1009,-388.7965"/>
<path fill="none" stroke="#000000" d="M728.7884,-337.9009C740.9043,-342.3402 754.7932,-348.1246 766.4601,-354.7408 784.1155,-364.7027 802.4554,-379.0233 815.8091,-390.3233"/>
<text text-anchor="middle" x="788.9448" y="-371" font-family="Courier,monospace" font-size="10.00" fill="#000000">1</text>
</g>
<!-- TEM&#45;&#45;CLAQUE -->
<g id="edge37" class="edge">
<title>TEM&#45;&#45;CLAQUE</title>
<path fill="none" stroke="#000000" d="M990.8214,-347C1016.5712,-347 1053.7714,-347 1078.905,-347"/>
<path fill="none" stroke="transparent" d="M990.8214,-349C1016.5712,-349 1053.7714,-349 1078.905,-349"/>
<path fill="none" stroke="#000000" d="M990.8214,-351C1016.5712,-351 1053.7714,-351 1078.905,-351"/>
<text text-anchor="middle" x="1037.1692" y="-352" font-family="Courier,monospace" font-size="10.00" fill="#000000">N</text>
</g>
</g>
</svg>
