<?xml version="1.0" encoding="UTF-8" standalone="no"?>
<!DOCTYPE svg PUBLIC "-//W3C//DTD SVG 1.1//EN"
 "http://www.w3.org/Graphics/SVG/1.1/DTD/svg11.dtd">
<!-- Generated by graphviz version 2.40.1 (20161225.0304)
 -->
<!-- Title: %3 Pages: 1 -->
<svg width="407pt" height="473pt"
 viewBox="0.00 0.00 407.00 473.00" xmlns="http://www.w3.org/2000/svg" xmlns:xlink="http://www.w3.org/1999/xlink">
<g id="graph0" class="graph" transform="scale(1 1) rotate(0) translate(4 469)">
<title>%3</title>
<polygon fill="#ffffff" stroke="transparent" points="-4,4 -4,-469 403,-469 403,4 -4,4"/>
<!-- CLUBE -->
<g id="node1" class="node">
<title>CLUBE</title>
<polygon fill="#ffffff" stroke="transparent" points="399,-208 298,-208 298,-115 399,-115 399,-208"/>
<polygon fill="none" stroke="#000000" points="306.5,-186.5 306.5,-203.5 391.5,-203.5 391.5,-186.5 306.5,-186.5"/>
<text text-anchor="start" x="309.5" y="-193.5" font-family="Courier,monospace" font-weight="bold" font-size="10.00" fill="#000000">CLUBE</text>
<polygon fill="none" stroke="#000000" points="306.5,-169.5 306.5,-186.5 391.5,-186.5 391.5,-169.5 306.5,-169.5"/>
<text text-anchor="start" x="309.5" y="-176.5" font-family="Courier,monospace" text-decoration="underline" font-size="10.00" fill="#000000">Nome</text>
<polygon fill="none" stroke="#000000" points="306.5,-152.5 306.5,-169.5 391.5,-169.5 391.5,-152.5 306.5,-152.5"/>
<text text-anchor="start" x="309.5" y="-158.5" font-family="Courier,monospace" font-size="10.00" fill="#000000">DataFund</text>
<polygon fill="none" stroke="#000000" points="306.5,-135.5 306.5,-152.5 391.5,-152.5 391.5,-135.5 306.5,-135.5"/>
<text text-anchor="start" x="309.5" y="-141.5" font-family="Courier,monospace" font-size="10.00" fill="#000000">Estadio ?</text>
<polygon fill="none" stroke="#000000" points="306.5,-118.5 306.5,-135.5 391.5,-135.5 391.5,-118.5 306.5,-118.5"/>
<text text-anchor="start" x="309.5" y="-125.5" font-family="Courier,monospace" text-decoration="underline" font-size="10.00" fill="#000000">Classificacao</text>
</g>
<!-- JOGADORES -->
<g id="node2" class="node">
<title>JOGADORES</title>
<polygon fill="#ffffff" stroke="transparent" points="238,-465 149,-465 149,-338 238,-338 238,-465"/>
<polygon fill="none" stroke="#000000" points="157.5,-443.5 157.5,-460.5 230.5,-460.5 230.5,-443.5 157.5,-443.5"/>
<text text-anchor="start" x="160.5" y="-450.5" font-family="Courier,monospace" font-weight="bold" font-size="10.00" fill="#000000">JOGADORES</text>
<polygon fill="none" stroke="#000000" points="157.5,-426.5 157.5,-443.5 230.5,-443.5 230.5,-426.5 157.5,-426.5"/>
<text text-anchor="start" x="160.5" y="-433.5" font-family="Courier,monospace" text-decoration="underline" font-size="10.00" fill="#000000">JogadoresId</text>
<polygon fill="none" stroke="#000000" points="157.5,-409.5 157.5,-426.5 230.5,-426.5 230.5,-409.5 157.5,-409.5"/>
<text text-anchor="start" x="160.5" y="-415.5" font-family="Courier,monospace" font-size="10.00" fill="#000000">Nome</text>
<polygon fill="none" stroke="#000000" points="157.5,-392.5 157.5,-409.5 230.5,-409.5 230.5,-392.5 157.5,-392.5"/>
<text text-anchor="start" x="160.5" y="-398.5" font-family="Courier,monospace" font-size="10.00" fill="#000000">Clube</text>
<polygon fill="none" stroke="#000000" points="157.5,-375.5 157.5,-392.5 230.5,-392.5 230.5,-375.5 157.5,-375.5"/>
<text text-anchor="start" x="160.5" y="-381.5" font-family="Courier,monospace" font-size="10.00" fill="#000000">Numero</text>
<polygon fill="none" stroke="#000000" points="157.5,-358.5 157.5,-375.5 230.5,-375.5 230.5,-358.5 157.5,-358.5"/>
<text text-anchor="start" x="160.5" y="-364.5" font-family="Courier,monospace" font-size="10.00" fill="#000000">Posicao</text>
<polygon fill="none" stroke="#000000" points="157.5,-341.5 157.5,-358.5 230.5,-358.5 230.5,-341.5 157.5,-341.5"/>
<text text-anchor="start" x="160.5" y="-347.5" font-family="Courier,monospace" font-size="10.00" fill="#000000">País</text>
</g>
<!-- JOGADORES&#45;&gt;CLUBE -->
<g id="edge1" class="edge">
<title>JOGADORES:Clube&#45;&gt;CLUBE:Nome</title>
<path fill="none" stroke="#000000" d="M230.5,-400.5C331.1219,-400.5 211.2407,-193.835 296.3585,-179.3039"/>
<polygon fill="#000000" stroke="#000000" points="296.8079,-182.7793 306.5,-178.5 296.2547,-175.8012 296.8079,-182.7793"/>
</g>
<!-- MARCADORES -->
<g id="node3" class="node">
<title>MARCADORES</title>
<polygon fill="#ffffff" stroke="transparent" points="89,-410.5 0,-410.5 0,-334.5 89,-334.5 89,-410.5"/>
<polygon fill="none" stroke="#000000" points="8.5,-389.5 8.5,-406.5 81.5,-406.5 81.5,-389.5 8.5,-389.5"/>
<text text-anchor="start" x="11.5" y="-396.5" font-family="Courier,monospace" font-weight="bold" font-size="10.00" fill="#000000">MARCADORES</text>
<polygon fill="none" stroke="#000000" points="8.5,-372.5 8.5,-389.5 81.5,-389.5 81.5,-372.5 8.5,-372.5"/>
<text text-anchor="start" x="11.5" y="-379.5" font-family="Courier,monospace" text-decoration="underline" font-size="10.00" fill="#000000">JogadoresId</text>
<polygon fill="none" stroke="#000000" points="8.5,-355.5 8.5,-372.5 81.5,-372.5 81.5,-355.5 8.5,-355.5"/>
<text text-anchor="start" x="11.5" y="-361.5" font-family="Courier,monospace" font-size="10.00" fill="#000000">Clube</text>
<polygon fill="none" stroke="#000000" points="8.5,-338.5 8.5,-355.5 81.5,-355.5 81.5,-338.5 8.5,-338.5"/>
<text text-anchor="start" x="11.5" y="-344.5" font-family="Courier,monospace" font-size="10.00" fill="#000000">Golos</text>
</g>
<!-- MARCADORES&#45;&gt;CLUBE -->
<g id="edge3" class="edge">
<title>MARCADORES:Clube&#45;&gt;CLUBE:Nome</title>
<path fill="none" stroke="#000000" d="M81.5,-363.5C106.0382,-363.5 103.1267,-340.6213 125,-329.5 181.4325,-300.8072 215.0348,-332.952 262,-290.5 298.7866,-257.2484 259.6929,-189.5723 296.1874,-179.7098"/>
<polygon fill="#000000" stroke="#000000" points="296.9759,-183.1413 306.5,-178.5 296.1603,-176.189 296.9759,-183.1413"/>
</g>
<!-- MARCADORES&#45;&gt;JOGADORES -->
<g id="edge2" class="edge">
<title>MARCADORES:JogadoresId&#45;&gt;JOGADORES:JogadoresId</title>
<path fill="none" stroke="#000000" d="M81.5,-381.5C119.2132,-381.5 116.9089,-426.2328 147.4315,-434.2707"/>
<polygon fill="#000000" stroke="#000000" points="147.1495,-437.7622 157.5,-435.5 147.9979,-430.8138 147.1495,-437.7622"/>
</g>
<!-- JOGOS_CLUBE -->
<g id="node4" class="node">
<title>JOGOS_CLUBE</title>
<polygon fill="#ffffff" stroke="transparent" points="262,-281 125,-281 125,-154 262,-154 262,-281"/>
<polygon fill="none" stroke="#000000" points="133.5,-259.5 133.5,-276.5 254.5,-276.5 254.5,-259.5 133.5,-259.5"/>
<text text-anchor="start" x="136.5" y="-266.5" font-family="Courier,monospace" font-weight="bold" font-size="10.00" fill="#000000">JOGOS_CLUBE</text>
<polygon fill="none" stroke="#000000" points="133.5,-242.5 133.5,-259.5 254.5,-259.5 254.5,-242.5 133.5,-242.5"/>
<text text-anchor="start" x="136.5" y="-249.5" font-family="Courier,monospace" text-decoration="underline" font-size="10.00" fill="#000000">JogosClubeId</text>
<polygon fill="none" stroke="#000000" points="133.5,-225.5 133.5,-242.5 254.5,-242.5 254.5,-225.5 133.5,-225.5"/>
<text text-anchor="start" x="136.5" y="-231.5" font-family="Courier,monospace" font-size="10.00" fill="#000000">NumJogos</text>
<polygon fill="none" stroke="#000000" points="133.5,-208.5 133.5,-225.5 254.5,-225.5 254.5,-208.5 133.5,-208.5"/>
<text text-anchor="start" x="136.5" y="-214.5" font-family="Courier,monospace" font-size="10.00" fill="#000000">Resultados_Vitorias</text>
<polygon fill="none" stroke="#000000" points="133.5,-191.5 133.5,-208.5 254.5,-208.5 254.5,-191.5 133.5,-191.5"/>
<text text-anchor="start" x="136.5" y="-197.5" font-family="Courier,monospace" font-size="10.00" fill="#000000">Resultados_Empates</text>
<polygon fill="none" stroke="#000000" points="133.5,-174.5 133.5,-191.5 254.5,-191.5 254.5,-174.5 133.5,-174.5"/>
<text text-anchor="start" x="136.5" y="-180.5" font-family="Courier,monospace" font-size="10.00" fill="#000000">Resultados_Derrotas</text>
<polygon fill="none" stroke="#000000" points="133.5,-157.5 133.5,-174.5 254.5,-174.5 254.5,-157.5 133.5,-157.5"/>
<text text-anchor="start" x="136.5" y="-163.5" font-family="Courier,monospace" font-size="10.00" fill="#000000">Pontos</text>
</g>
<!-- JOGOS_CLUBE&#45;&gt;CLUBE -->
<g id="edge4" class="edge">
<title>JOGOS_CLUBE:JogosClubeId&#45;&gt;CLUBE:Nome</title>
<path fill="none" stroke="#000000" d="M254.5,-251.5C290.4442,-251.5 271.426,-192.0616 296.6354,-180.4526"/>
<polygon fill="#000000" stroke="#000000" points="297.3699,-183.8752 306.5,-178.5 296.0107,-177.0084 297.3699,-183.8752"/>
</g>
<!-- CLASSIFICACAO -->
<g id="node5" class="node">
<title>CLASSIFICACAO</title>
<polygon fill="#ffffff" stroke="transparent" points="244,-59 143,-59 143,0 244,0 244,-59"/>
<polygon fill="none" stroke="#000000" points="151.5,-37.5 151.5,-54.5 236.5,-54.5 236.5,-37.5 151.5,-37.5"/>
<text text-anchor="start" x="154.5" y="-44.5" font-family="Courier,monospace" font-weight="bold" font-size="10.00" fill="#000000">CLASSIFICACAO</text>
<polygon fill="none" stroke="#000000" points="151.5,-20.5 151.5,-37.5 236.5,-37.5 236.5,-20.5 151.5,-20.5"/>
<text text-anchor="start" x="154.5" y="-27.5" font-family="Courier,monospace" text-decoration="underline" font-size="10.00" fill="#000000">Lugar</text>
<polygon fill="none" stroke="#000000" points="151.5,-3.5 151.5,-20.5 236.5,-20.5 236.5,-3.5 151.5,-3.5"/>
<text text-anchor="start" x="154.5" y="-10.5" font-family="Courier,monospace" text-decoration="underline" font-size="10.00" fill="#000000">Clube</text>
</g>
<!-- CLASSIFICACAO&#45;&gt;CLUBE -->
<g id="edge5" class="edge">
<title>CLASSIFICACAO:Lugar&#45;&gt;CLUBE:Classificacao</title>
<path fill="none" stroke="#000000" d="M236.5,-28.5C286.2621,-28.5 257.7369,-113.2032 296.4899,-125.1146"/>
<polygon fill="#000000" stroke="#000000" points="296.1146,-128.596 306.5,-126.5 297.0743,-121.6621 296.1146,-128.596"/>
</g>
<!-- CLASSIFICACAO&#45;&gt;CLUBE -->
<g id="edge6" class="edge">
<title>CLASSIFICACAO:Clube&#45;&gt;CLUBE:Nome</title>
<path fill="none" stroke="#000000" d="M236.5,-11.5C313.2064,-11.5 234.1718,-163.2107 296.2774,-177.4336"/>
<polygon fill="#000000" stroke="#000000" points="296.1908,-180.9434 306.5,-178.5 296.9172,-173.9812 296.1908,-180.9434"/>
</g>
<!-- CLAQUE -->
<g id="node6" class="node">
<title>CLAQUE</title>
<polygon fill="#ffffff" stroke="transparent" points="223,-136 164,-136 164,-77 223,-77 223,-136"/>
<polygon fill="none" stroke="#000000" points="172.5,-114.5 172.5,-131.5 215.5,-131.5 215.5,-114.5 172.5,-114.5"/>
<text text-anchor="start" x="175.5" y="-121.5" font-family="Courier,monospace" font-weight="bold" font-size="10.00" fill="#000000">CLAQUE</text>
<polygon fill="none" stroke="#000000" points="172.5,-97.5 172.5,-114.5 215.5,-114.5 215.5,-97.5 172.5,-97.5"/>
<text text-anchor="start" x="175.5" y="-104.5" font-family="Courier,monospace" text-decoration="underline" font-size="10.00" fill="#000000">Clube</text>
<polygon fill="none" stroke="#000000" points="172.5,-80.5 172.5,-97.5 215.5,-97.5 215.5,-80.5 172.5,-80.5"/>
<text text-anchor="start" x="175.5" y="-87.5" font-family="Courier,monospace" text-decoration="underline" font-size="10.00" fill="#000000">Claque</text>
</g>
<!-- CLAQUE&#45;&gt;CLUBE -->
<g id="edge7" class="edge">
<title>CLAQUE:Clube&#45;&gt;CLUBE:Nome</title>
<path fill="none" stroke="#000000" d="M215.5,-105.5C263.7041,-105.5 256.117,-168.5953 296.4754,-177.468"/>
<polygon fill="#000000" stroke="#000000" points="296.1941,-180.9575 306.5,-178.5 296.911,-173.9943 296.1941,-180.9575"/>
</g>
</g>
</svg>
